<?xml version="1.0" encoding="utf-8"?>
<!-- Generator: Adobe Illustrator 22.1.0, SVG Export Plug-In . SVG Version: 6.00 Build 0)  -->
<svg version="1.1" id="Layer_1" xmlns="http://www.w3.org/2000/svg" xmlns:xlink="http://www.w3.org/1999/xlink" x="0px" y="0px"
	 viewBox="0 0 1000 1000" style="enable-background:new 0 0 1000 1000;" xml:space="preserve">
<style type="text/css">
	.st0{fill:#312C2E;}
</style>
<g>
	<g>
		<path class="st0" d="M270,903.1c11.7,0.4,22.7,1.1,32.8,3.5c5.1,1,10.1,2.2,15,3.7c2.4,0.8,4.8,1.6,7.2,2.5
			c2.4,0.8,4.8,1.6,7.1,2.5c18.6,7.5,36.7,17,55.4,27c9.5,4.6,19,9.9,28.9,14.1c5,2.1,9.9,4.5,15,6.3c5.1,1.8,10.2,3.6,15.4,5.3
			c5.2,1.8,10.5,2.8,15.8,4c5.3,1,10.7,2.2,16.1,2.5c10.8,0.8,21.7,1,32.5-1.1c4.4-0.8,8.8-1.7,13.1-2.8c4.3-1.3,8.6-2.7,12.8-4.2
			c4.2-1.6,8.4-3,12.5-4.9c4.1-1.9,8.1-3.8,12.2-5.7c16-7.8,31.1-17.1,46-25c21.8-12,44.3-17.3,68.4-21.8c24-4.4,49.2-8.6,73.4-16.5
			c32.9-10.9,59.9-32.7,77.5-62.4c12.5-21.4,21.9-42.5,37.5-60.5c3.8-4.6,8.1-8.8,12.8-12.8c4.6-4.1,9.3-8.2,14.3-12.2
			c5-4,9.8-8.2,14.5-12.5c4.7-4.3,9.4-8.7,13.2-13.6c3-3.6,5.5-7.4,7.7-11.4c2.2-4,3.7-8.2,5.2-12.5c1.4-4.3,2.6-8.6,3.3-13.1
			c0.7-4.5,1.2-9,1.5-13.6c1.4-18.2-0.9-36.7-1-54c-0.7-20.6,9.4-37,18.5-55c2.3-4.5,4.7-9,6.7-13.6c1.9-4.6,3.7-9.3,5.2-14.1
			c0.7-2.4,1.4-4.8,1.9-7.3c0.5-2.5,0.7-4.9,0.9-7.4c0.3-5,0.2-10.1-0.7-15.2c-0.7-3.9-8.7-2.2-8,1.6c0.8,4.6,1,9.2,0.7,13.7
			c-0.2,2.2-0.4,4.5-0.8,6.7c-0.5,2.2-1.1,4.4-1.7,6.5c-2.7,8.6-6.5,16.9-11.1,24.9c-2.2,4-4.4,8-6.4,11.9c-2.2,3.9-4.3,7.8-6,11.8
			c-1.8,4-3.1,8-4.3,12.1c-1.2,4.1-1.9,8.4-2.1,12.9c-0.1,5-0.2,10.1-0.2,15.1c0,5.1,0.3,10.2,0.5,15.4l0.4,15.6
			c0.1,2.6,0.2,5.3,0.2,7.9l-0.2,7.9c-0.7,30-16.9,52.5-38.6,71.5c-14.6,12.4-26.3,24.1-36.9,36.6c-2.6,3.1-5.2,6.4-7.5,9.8
			c-2.4,3.3-5,6.7-7.3,10.2c-2.4,3.5-4.5,7.3-6.9,11.1c-2.3,3.8-4.6,7.7-6.8,11.9c-12.8,23.4-30.8,41-51.6,53.8
			c-20.9,12.8-44.8,20.7-70.2,25.5c-3.9,0.7-7.9,1.5-11.8,2.2l-11.9,1.9l-11.6,2.2c-3.9,0.6-7.7,1.3-11.5,2.2
			c-7.5,1.8-15,3.4-22.3,5.9c-7.2,2.6-14.5,5.1-21.4,8.8c-19,9.5-38,21.3-58.5,30.4l-7.7,3.5c-2.6,1.1-5.2,2.1-7.9,3.1
			c-5.3,2-10.7,3.9-16.1,5.5c-10.9,2.8-22.1,5.5-33.6,5.7c-5,0.2-10,0.2-14.9-0.1c-4.9-0.5-9.8-1.2-14.7-2.2c-2.4-0.5-4.9-1-7.3-1.5
			c-2.4-0.6-4.8-1.3-7.2-2.1c-4.7-1.5-9.4-3.1-14.1-4.8c-4.6-1.7-9.1-3.9-13.6-5.9c-4.5-2.1-8.9-4-13.3-6.4
			c-8.7-4.7-17.2-9.1-25.4-14.1c-4.1-2.4-8.3-4.6-12.4-6.9c-4.1-2.4-8.1-4.6-12.3-6.7l-12.4-6c-4.1-1.9-8.3-3.7-12.7-5.1
			c-17-6.6-35.5-9.8-57.8-9.3C268.4,896.6,266.9,903,270,903.1z"/>
	</g>
	<g>
		<path class="st0" d="M264.3,98.4c-1.5,2.5-3.1,4.9-4.6,7.3c-1.5,2.4-3.1,4.7-4.7,7c-3.2,4.5-6.6,8.5-10.1,12.4
			c-6.8,8-14.4,14.5-22.1,21c-8,6.1-16,12.2-24.7,17.6c-4.3,2.8-8.5,5.7-13,8.4c-4.4,2.8-9,5.5-13.3,8.4c-4.5,2.9-9,5.8-13.5,8.6
			l-13.2,9.3c-4.5,3.1-8.7,6.4-12.9,9.9c-4.2,3.5-8.5,6.9-12.4,10.7c-15.9,14.9-29.2,32.5-37,52.9c-3,8.5-5.3,17.1-6.9,25.9
			c-0.7,4.4-1.3,8.9-1.9,13.3c-0.6,4.4-1,8.8-1.2,13.3c-0.4,9-1,17.7-0.9,26.5c-0.1,8.6-0.2,17.2-0.3,25.9
			c-0.6,24.8-7.4,47-15.2,70.1c-2.2,5.7-4,11.6-6.1,17.4c-2.1,5.9-4.4,11.8-6.2,17.7c-1.9,6-3.9,12-5.7,18.1
			c-1.6,6.1-3.1,12.3-4.5,18.5c-7.1,34-1.9,68.2,15.2,98.3c12.2,21.5,25.9,40.2,33.7,62.7c2.1,5.6,3.5,11.5,4.6,17.5
			c1.4,6,2.4,12.1,3.4,18.4c0.9,6.3,2.3,12.5,3.6,18.8c0.7,3.1,1.4,6.3,2.2,9.3c0.9,3,1.9,6,3,8.9c1.6,4.4,3.6,8.5,6,12.4
			c2.5,3.8,5.3,7.3,8.2,10.7c5.8,6.8,13.2,12.3,20.7,17.5c3.7,2.6,7.7,4.9,11.7,7.2l11.9,6.6c8.1,4.1,16.1,8.1,23.7,12.3
			c9.2,4.8,15.7,11.7,21.8,19.1c3,3.7,5.7,7.9,8.4,12c2.8,4,5.4,8.3,8.1,12.6c2.6,4.3,5.5,8.5,8.5,12.5c3,4.1,6.1,8,9.5,11.7
			c3.5,3.5,7.3,6.8,11.4,9.7c2.1,1.4,4.2,2.8,6.4,4c2.3,1.1,4.7,2.1,7.2,3c3.7,1.3,6.3-6.5,2.6-7.7c-2.2-0.8-4.4-1.6-6.4-2.7
			c-2-1.1-3.9-2.3-5.8-3.6c-3.7-2.6-7.1-5.6-10.2-8.8c-6.1-6.7-11.2-14.3-16-22.1c-2.3-3.9-4.6-7.9-7-11.6c-1.2-1.9-2.4-3.7-3.6-5.6
			c-1.2-1.9-2.4-3.7-3.6-5.5c-2.5-3.6-5.3-6.9-8.3-9.8c-3.1-3-6.3-5.9-10.1-8.3c-8.6-5.2-17.3-10.2-26.6-14.9
			c-4.6-2.4-9.1-4.9-13.7-7.4c-4.6-2.5-9.4-5-13.8-7.8c-25.6-15.6-37.1-40.8-42.7-69.2c-1.8-9.4-3.7-18.1-6-26.4
			c-1-4.2-2.1-8.2-3.4-12.2c-1.3-3.9-2.7-7.8-4-11.7c-2.7-7.8-6.3-15.2-9.9-22.8c-1.9-3.8-3.9-7.6-6.2-11.5
			c-2.2-3.9-4.4-7.9-6.8-11.9c-1.7-2.8-3.4-5.7-5-8.6c-1.5-2.9-2.8-5.8-4-8.8c-1.3-2.9-2.4-5.9-3.5-8.9l-1.6-4.5l-1.2-4.5
			c-1.6-6-2.9-12.1-3.9-18.1c-0.7-6.1-1.2-12.2-1.4-18.3c-0.4-24.5,4.4-49.1,13-73.5c2.8-7.6,5.7-15.1,8.3-22.6
			c2.9-7.4,5.6-14.8,7.8-22.2c2.6-7.3,4.6-14.7,6.1-22.2c1.8-7.4,2.6-15.1,3.1-23c1-21.3,0.9-43.4,2.7-65.9
			c2.2-22.3,6.9-45,17.1-65.5c2.4-4.4,5-8.6,7.8-12.7c1.4-2,2.8-4.1,4.3-6c1.6-1.9,3.2-3.8,4.8-5.7c3.3-3.7,6.7-7.3,10.2-10.7
			c3.7-3.4,7.5-6.5,11.3-9.7c7.5-6.4,16-11.7,24.1-17.2c4.1-2.7,8.4-5.1,12.5-7.6c4.2-2.5,8.2-5.1,12.4-7.4
			c4.2-2.4,8.2-4.8,12.2-7.3c3.9-2.5,8.1-4.7,11.9-7.3c7.6-5.1,15.3-10.1,22.2-16.1c3.4-3.1,6.9-5.9,10.2-9.2
			c3.3-3.2,6.4-6.9,9.5-10.5c6.3-7.2,11.7-16.1,17.1-25.7C270.8,100.3,265.9,95.8,264.3,98.4z"/>
	</g>
	<g>
		<path class="st0" d="M964,495.8c-6-10.3-10-20.3-13.5-30.1c-1.7-4.9-2.8-9.9-4.1-14.8c-1.3-4.9-2.2-9.9-2.9-14.8
			c-0.6-5-1.4-10-1.9-15c-0.5-5-0.7-10.1-1-15.2c-0.8-10.2-0.7-20.7-1.4-31.2c-0.7-21.2-2.5-43-7.4-64.3c-1.3-5.3-2.7-10.5-4.4-15.7
			c-1.7-5.1-3.8-10.2-6-15.1c-1.1-2.5-2.3-4.9-3.5-7.4c-1.3-2.4-2.7-4.7-4.1-7c-2.9-4.6-5.9-9.1-9.4-13.3
			c-11.6-13.7-25.7-25.1-40.6-34.9l-11.2-7.2c-3.8-2.3-7.6-4.5-11.4-6.8c-3.8-2.2-7.4-4.5-11.2-6.7c-3.8-2.1-7.5-4.3-11.1-6.5
			c-21.2-12.9-37.1-29.8-53-48.4c-15.9-18.4-31.9-38.3-50.9-55.3C689.3,62.8,657,50.3,622.3,50c-6.1-0.2-12.2,0.1-18.3,0.2
			c-6,0.2-11.9,0-17.8,0.3c-5.9,0.1-11.7-0.1-17.5-0.6c-5.8-0.3-11.7-0.9-17.5-2.1c-5.8-1.3-11.7-2.6-17.5-4.6
			c-5.8-2-11.7-4.3-17.7-6.3c-6-2.1-12-4.5-18.1-6.4c-6.1-1.8-12.2-3.4-18.4-4.6c-4.6-1-9.2-1-13.7-0.9c-4.5,0.2-9,0.7-13.4,1.6
			c-8.8,2-17.3,5.3-25.5,9.1c-8.2,4.3-16.1,8.7-23.7,13.7l-11.3,7.3l-5.6,3.5c-1.9,1.2-3.7,2.4-5.6,3.5c-4.4,2.7-8.9,4.7-13.5,6
			c-4.6,1.5-9.2,2.6-13.9,3.3c-9.6,1.2-19.3,1.7-29.5,2c-5.1,0.1-10,0.6-15.1,1.1c-5,0.6-10.1,1.1-14.9,2.4
			c-9.6,2.6-19.1,6.2-26.9,13.3c-3,2.6,2.5,8.7,5.3,6.1c7-6.4,15.6-9.7,24.2-11.9c8.7-2.2,18.1-2.4,27.1-3c9.2,0,18.1-0.2,26.8-1
			c8.7-0.7,16.9-3,24.9-6.9c4.5-2.3,8.8-4.8,13.1-7.5c4.4-2.5,8.7-5.1,13.1-7.9l6.6-4.2l6.7-4c4.6-2.7,9.1-5.4,13.7-8.1
			c26.4-14.3,54-11.3,81.2-2.1c4.5,1.6,8.9,2.9,13.2,4.2c4.3,1.4,8.5,2.7,12.6,3.8c4.1,1.2,8.2,1.9,12.3,3c4.1,1,8.1,1.8,12.1,2.5
			c16.2,2.6,32.6,3.7,51.5,3c26.7-0.6,50.9,6.3,72.4,17.9c21.6,11.6,40.3,28.4,57.1,48.1c2.6,3.1,5.3,6,7.8,9.2
			c2.5,3.2,5,6.3,7.6,9.3c5.2,5.9,10,12.2,15.3,17.9l4,4.2c1.3,1.4,2.6,2.9,3.9,4.2c2.7,2.8,5.4,5.4,8.3,7.9
			c5.7,5.1,11.6,10,18.4,14.1c17.8,11.7,37.3,22.4,55.7,35.4c18.2,13.1,35.7,28.3,48.2,47.5c10.7,16.9,16.9,36,19.7,55.7
			c3.3,19.5,3,39.5,3.4,58.5c-0.2,19.2,0.3,37.4,3.2,55.4c3.3,18,8.9,35.6,21.1,54.6C959.3,500.5,965.5,498.6,964,495.8z"/>
	</g>
</g>
</svg>
